<svg xmlns="http://www.w3.org/2000/svg" viewBox="0 0 64 64" width="64" height="64"><linearGradient id="r46qiMJCXMsSzsrKSfWW1a" x1="32" x2="32" y1="6" y2="58" gradientUnits="userSpaceOnUse" spreadMethod="reflect"><stop offset="0" stop-color="#1a6dff"/><stop offset="1" stop-color="#c822ff"/></linearGradient><path fill="none" stroke="url(#r46qiMJCXMsSzsrKSfWW1a)" stroke-miterlimit="10" stroke-width="2" d="M32 7A25 25 0 1 0 32 57A25 25 0 1 0 32 7Z"/><linearGradient id="r46qiMJCXMsSzsrKSfWW1b" x1="34.443" x2="34.443" y1="48" y2="56" gradientUnits="userSpaceOnUse" spreadMethod="reflect"><stop offset="0" stop-color="#6dc7ff"/><stop offset="1" stop-color="#e6abff"/></linearGradient><path fill="url(#r46qiMJCXMsSzsrKSfWW1b)" d="M48.88,49.05c-0.78,0.78-1.61,1.49-2.48,2.15l-0.06,0.05c-0.77,0.58-1.55,1.1-2.38,1.57 c0,0.01-0.01,0.01-0.01,0.01h-0.01C40.32,54.91,36.25,56,32,56c-2.9,0-5.71-0.51-8.39-1.51c-0.16-0.06-0.31-0.12-0.47-0.18 c-0.59-0.23-1.17-0.5-1.75-0.79c-0.34-0.16-0.67-0.34-1-0.52c-0.4-1.22-0.61-2.63-0.01-3.67c0.34-0.61,1.09-1.33,2.69-1.33 c1.6,0,3.23,0.62,5.1,1.34c2.61,1,5.56,2.13,9.58,2.13C44.33,51.47,48.58,49.21,48.88,49.05z"/><linearGradient id="r46qiMJCXMsSzsrKSfWW1c" x1="34.94" x2="34.94" y1="10.001" y2="35.86" gradientUnits="userSpaceOnUse" spreadMethod="reflect"><stop offset="0" stop-color="#6dc7ff"/><stop offset="1" stop-color="#e6abff"/></linearGradient><path fill="url(#r46qiMJCXMsSzsrKSfWW1c)" d="M56,32c0,0.62-0.03,1.25-0.09,1.89v0.05c-0.03,0.6-0.11,1.23-0.22,1.89 c0,0.01,0,0.02-0.01,0.03c-3.73-0.64-9.05-3.92-15.83-9.79c-1.14-0.96-2.33-2.08-3.58-3.27c-4.34-4.13-9.25-8.8-14.7-8.8 c-4.92,0-7.18,1.79-7.69,2.27c0.8-0.93,1.69-1.81,2.66-2.63c0.24-0.2,0.48-0.4,0.76-0.6c0.35-0.28,0.71-0.54,1.08-0.79 c0.73-0.51,1.49-0.98,2.27-1.4c3.97-1.05,8.91-0.83,9.02-0.83c9.19,0,13.98,6.23,17.82,11.24c2.47,3.21,4.42,5.74,6.98,5.74 c0.37,0,0.69-0.05,0.97-0.14C55.81,28.53,56,30.26,56,32z"/><linearGradient id="r46qiMJCXMsSzsrKSfWW1d" x1="31.135" x2="31.135" y1="22" y2="47" gradientUnits="userSpaceOnUse" spreadMethod="reflect"><stop offset="0" stop-color="#6dc7ff"/><stop offset="1" stop-color="#e6abff"/></linearGradient><path fill="url(#r46qiMJCXMsSzsrKSfWW1d)" d="M54.27,40.94c-0.44,1.14-1.01,2.28-1.68,3.4c-0.1,0.17-0.21,0.34-0.32,0.51 C51.57,45.2,47.79,47,43.36,47c-11.37,0-17.61-3.17-22.17-5.48C18.42,40.11,16.23,39,13.82,39c-1.97,0-3.3,0.89-4.12,1.85 C8.57,38.04,8,35.07,8,32c0-1.57,0.15-3.13,0.45-4.65c0.12-0.6,0.26-1.2,0.43-1.8v-0.01c1.36-1.43,3.99-3.54,7.71-3.54 c5.01,0,9.49,3.59,14.68,7.74C37.51,34.73,44.52,40.35,54.27,40.94z"/></svg>