<?xml version="1.0" encoding="UTF-8"?>
<svg xmlns="http://www.w3.org/2000/svg" xmlns:xlink="http://www.w3.org/1999/xlink" width="24pt" height="24pt" viewBox="0 0 24 24" version="1.1">
<g id="surface261">
<path style=" stroke:none;fill-rule:nonzero;fill:rgb(80%,80%,80%);fill-opacity:1;" d="M 9 2 C 5.144531 2 2 5.144531 2 9 C 2 12.855469 5.144531 16 9 16 C 10.746094 16 12.34375 15.347656 13.574219 14.28125 L 14 14.707031 L 14 16 L 20 22 L 22 20 L 16 14 L 14.707031 14 L 14.28125 13.574219 C 15.347656 12.34375 16 10.746094 16 9 C 16 5.144531 12.855469 2 9 2 Z M 9 4 C 11.773438 4 14 6.226562 14 9 C 14 11.773438 11.773438 14 9 14 C 6.226562 14 4 11.773438 4 9 C 4 6.226562 6.226562 4 9 4 Z M 9 4 "/>
</g>
</svg>
